# xmcd CD database file
#
# Track frame offsets:
#	187
#	18067
#	37110
#	54825
#	70415
#	88617
#	106797
#	124320
#	138650
#	155487
#	167392
#	184280
#
# Disc length: 2659 seconds
#
# Revision: 0
# Processed by: cddbd v1.5.2PL0 Copyright (c) Steve Scherf et al.
# Submitted via: CDex 1.70beta2
#
DISCID=9b0a610c
DTITLE=CDer - mellow sound
DYEAR=1900
DGENRE=Jazz
TTITLE0=センチメンタル・ジャーニー
TTITLE1=ナイト・ライン
TTITLE2=ネバー・ウォナ・セイ・グッドナイト
TTITLE3=アレキサンダーズ・ラグタイム・バンド
TTITLE4=嘘は罪
TTITLE5=カプリコーン・ウーマン
TTITLE6=君の瞳に恋してる
TTITLE7=ヴォラーレ
TTITLE8=サムバディー・ラブス・ミー
TTITLE9=オン・ザ・サニー・サンド・オブ・ザ・ストリート
TTITLE10=エボニー・アンド・アイボリー
TTITLE11=ゼイ・アー・プレイング・アワー・ソング
EXTD=
EXTT0=
EXTT1=
EXTT2=
EXTT3=
EXTT4=
EXTT5=
EXTT6=
EXTT7=
EXTT8=
EXTT9=
EXTT10=
EXTT11=
PLAYORDER=
